<svg width="420" height="420" viewBox="0 0 420 420" fill="none" xmlns="http://www.w3.org/2000/svg">
<circle cx="210" cy="210" r="210" fill="#800EEE"/>
<path d="M259.033 170.19C256.678 174.293 254.309 178.789 249.915 181.073C235.335 188.737 200.379 214.22 193.165 220.443C183.783 228.083 172.354 232.479 161.173 236.778L160.699 236.96C147.895 241.384 134.832 245.051 121.639 248.121C103.412 252.162 85.0154 256.099 66.3348 257.044C64.8038 257.292 63.3056 257.66 61.8404 258.151C63.46 259.076 65.0975 259.995 66.8876 260.564C93.5263 268.934 120.746 275.534 148.373 279.734C163.016 281.876 177.776 283.711 192.608 283.469C209.26 283.274 226.093 280.301 241.235 273.17C258.747 265.035 274.246 252.213 284.548 235.835C294.174 220.87 299.307 203.552 302.396 186.191C304.656 173.189 305.647 159.616 311.538 147.581C314.092 141.989 319.15 138.315 323.417 134.115C314.789 130.99 305.827 126.759 296.385 128.386C284.389 130.154 275.182 139.456 269.216 149.434C265.025 155.956 262.885 163.493 259.033 170.19Z" fill="white"/>
</svg>
